HIERARCHY
ROOT Hips
{
	OFFSET 0.000000 0.000000 0.000000 
	CHANNELS 6 Xposition Yposition Zposition Zrotation Xrotation Yrotation
	JOINT Spine
	{
		OFFSET 0.025696 8.374035 -0.002219 
		CHANNELS 3 Zrotation Xrotation Yrotation
		JOINT Spine1
		{
			OFFSET 0.037545 19.287872 0.041476 
			CHANNELS 3 Zrotation Xrotation Yrotation
			JOINT Neck
			{
				OFFSET 0.048995 22.804892 0.050017 
				CHANNELS 3 Zrotation Xrotation Yrotation
				JOINT Head
				{
					OFFSET 0.069231 15.543568 1.975471 
					CHANNELS 3 Zrotation Xrotation Yrotation
					End Site
					{
						OFFSET -0.000000 19.661171 0.000000 
					}
				}
			}
			JOINT LeftShoulder
			{
				OFFSET 3.943664 16.348362 -0.348172 
				CHANNELS 3 Zrotation Xrotation Yrotation
				JOINT LeftArm
				{
					OFFSET 19.774092 0.307226 -0.006297 
					CHANNELS 3 Zrotation Xrotation Yrotation
					JOINT LeftForeArm
					{
						OFFSET 25.289482 0.142896 0.034830 
						CHANNELS 3 Zrotation Xrotation Yrotation
						JOINT LeftHand
						{
							OFFSET 27.587254 0.080132 0.065604 
							CHANNELS 3 Zrotation Xrotation Yrotation
							End Site
							{
								OFFSET 14.745877 0.000000 0.000000 
							}
						}
					}
				}
			}
			JOINT RightShoulder
			{
				OFFSET -3.881776 16.348362 -0.348175 
				CHANNELS 3 Zrotation Xrotation Yrotation
				JOINT RightArm
				{
					OFFSET -19.707745 0.313866 -0.010452 
					CHANNELS 3 Zrotation Xrotation Yrotation
					JOINT RightForeArm
					{
						OFFSET -25.269497 0.092134 0.040954 
						CHANNELS 3 Zrotation Xrotation Yrotation
						JOINT RightHand
						{
							OFFSET -26.344341 0.058329 0.087678 
							CHANNELS 3 Zrotation Xrotation Yrotation
							End Site
							{
								OFFSET -14.745877 0.000000 0.000000 
							}
						}
					}
				}
			}
		}
	}
	JOINT LeftUpLeg
	{
		OFFSET 9.856290 0.312936 -0.002223 
		CHANNELS 3 Zrotation Xrotation Yrotation
		JOINT LeftLeg
		{
			OFFSET 0.070626 -46.169353 -0.016510 
			CHANNELS 3 Zrotation Xrotation Yrotation
			JOINT LeftFoot
			{
				OFFSET 0.052792 -29.987816 0.064588 
				CHANNELS 3 Zrotation Xrotation Yrotation
				JOINT LeftToeBase
				{
					OFFSET 0.079364 -6.086428 14.731017 
					CHANNELS 3 Zrotation Xrotation Yrotation
					End Site
					{
						OFFSET -0.000000 0.000000 3.932234 
					}
				}
			}
		}
	}
	JOINT RightUpLeg
	{
		OFFSET -9.804880 0.312936 -0.002216 
		CHANNELS 3 Zrotation Xrotation Yrotation
		JOINT RightLeg
		{
			OFFSET -0.000486 -46.161472 0.020096 
			CHANNELS 3 Zrotation Xrotation Yrotation
			JOINT RightFoot
			{
				OFFSET 0.050920 -29.981106 -0.016311 
				CHANNELS 3 Zrotation Xrotation Yrotation
				JOINT RightToeBase
				{
					OFFSET -0.007629 -6.076071 14.737690 
					CHANNELS 3 Zrotation Xrotation Yrotation
					End Site
					{
						OFFSET -0.000000 0.000000 3.932234 
					}
				}
			}
		}
	}
}
MOTION
Frames: 12
Frame Time: 0.010000
0.000000 83.047417 0.000000 -2.261105 3.994891 5.416211 1.757890 -8.627863 -0.808131 2.757606 -0.553791 -0.312450 2.496470 8.672048 2.055332 0.347715 11.905087 2.546499 2.465670 10.107674 0.732670 -70.270660 27.368483 -23.044590 -12.322124 1.412474 -6.061517 3.510735 0.907465 7.412102 -8.317090 10.130646 -10.854003 58.170532 51.468918 35.194164 6.021905 -11.058575 6.529079 -10.047184 -11.219022 -2.832711 4.273649 4.441371 7.901578 2.029763 -8.059151 1.376026 0.124370 3.881728 0.054261 0.000000 0.000000 0.000000 -6.167478 -1.226488 6.736513 9.571315 4.470240 -14.381748 -9.535408 -0.715207 -6.459556 0.000000 0.000000 0.000000 
-0.002094 83.047577 -0.004549 -2.260265 3.995354 5.414451 1.779107 -8.638368 -0.806768 2.688545 -0.512296 -0.313881 2.587640 8.599606 2.045537 0.312132 11.939759 2.561216 2.572706 10.147407 0.801684 -70.340355 27.104864 -23.077942 -12.441236 1.563898 -6.092338 3.553126 1.053271 7.477119 -8.282101 10.121409 -10.866507 58.401455 51.186935 34.955578 6.122110 -10.883639 6.655919 -10.094076 -11.052639 -2.873542 4.244939 4.408907 7.897364 1.970879 -8.093515 1.380488 1.260522 4.304798 -0.088453 0.000000 0.000000 0.000000 -6.166523 -1.232839 6.728824 9.567661 4.479745 -14.370046 -9.629400 -0.709713 -6.363666 0.000000 0.000000 0.000000 
-0.003837 83.050957 -0.015033 -2.270713 3.998110 5.402227 1.793215 -8.640502 -0.810155 2.732786 -0.569365 -0.313796 2.478552 8.745816 2.063620 0.392099 11.869249 2.543413 2.447757 10.101806 0.691556 -70.259743 27.307501 -22.973461 -12.298093 1.406691 -6.062015 3.505119 0.902731 7.416333 -8.318232 10.161515 -10.782791 58.204678 51.487984 35.156868 5.958459 -11.081774 6.547082 -9.963939 -11.238057 -2.869351 4.238917 4.407613 7.904554 1.870974 -8.122348 1.563462 1.624090 4.399084 -0.033758 0.000000 0.000000 0.000000 -6.112850 -1.166464 6.667115 9.493040 4.408175 -12.950109 -9.754291 -0.570996 -7.662300 0.000000 0.000000 0.000000 
-0.008371 83.047760 -0.015071 -2.255728 3.990652 5.411342 1.780531 -8.620110 -0.809181 2.691272 -0.529282 -0.314174 2.575706 8.594779 2.054186 0.332782 11.948857 2.562758 2.572140 10.123294 0.809218 -70.321510 27.102970 -23.050808 -12.434929 1.565542 -6.086151 3.555155 1.055880 7.468830 -8.292802 10.113817 -10.845469 58.416527 51.189976 34.929844 6.119452 -10.880494 6.664464 -10.089326 -11.050308 -2.868704 4.271026 4.431527 7.899347 2.031358 -8.050211 1.392248 0.100533 3.892323 0.088861 0.000000 0.000000 0.000000 -6.167521 -1.237622 6.731944 9.567600 4.486948 -14.362854 -9.584070 -0.725757 -6.428859 0.000000 0.000000 0.000000 
-0.011432 83.050941 -0.021964 -2.264858 4.001055 5.423931 1.720451 -8.606151 -0.847999 2.819699 -0.616293 -0.322942 2.505698 8.687630 2.086660 0.332511 11.924999 2.584475 2.459173 10.405267 0.878123 -70.144173 27.055077 -23.355059 -12.433529 1.556497 -6.024626 3.545135 1.053899 7.496471 -8.291624 10.182247 -10.793777 58.120632 51.367493 35.174118 6.099590 -11.055545 6.583718 -10.187476 -11.217423 -2.869627 4.277167 4.410484 7.882636 2.022135 -8.055258 1.370136 0.134988 3.938866 0.224125 0.000000 0.000000 0.000000 -6.119043 -1.328615 6.687330 9.637629 4.505296 -14.678140 -8.834477 -0.451286 -7.389277 0.000000 0.000000 0.000000 
-0.013087 83.047417 -0.025885 -2.249784 3.981631 5.413939 1.785173 -8.596470 -0.803253 2.719903 -0.573570 -0.311093 2.501010 8.656709 2.055206 0.373141 11.920567 2.540975 2.502012 10.055374 0.713940 -70.244576 27.341282 -22.980053 -12.292887 1.414508 -6.041436 3.438465 0.909584 7.439211 -8.321757 10.108993 -10.828938 58.227421 51.442966 35.125057 6.036380 -11.049546 6.547899 -10.047593 -11.212059 -2.830267 4.240492 4.405529 7.886485 1.982654 -8.090826 1.375931 1.226241 4.325417 -0.061982 0.000000 0.000000 0.000000 -6.172043 -1.237406 6.724058 9.573984 4.491885 -14.371061 -9.566667 -0.725732 -6.438525 0.000000 0.000000 0.000000 
-0.014319 83.047226 -0.032081 -2.247389 3.977335 5.411010 1.799922 -8.592934 -0.807829 2.665965 -0.545240 -0.313685 2.577091 8.594454 2.049330 0.340334 11.948496 2.556313 2.587864 10.085166 0.784278 -70.308075 27.086992 -22.997486 -12.418433 1.569524 -6.068317 3.534552 1.061448 7.468442 -8.295001 10.104204 -10.828778 58.439762 51.180904 34.902016 6.133275 -10.887532 6.665604 -10.125870 -11.058326 -2.858498 4.237284 4.405461 7.890290 1.981443 -8.092339 1.384409 1.262218 4.329414 -0.090970 0.000000 0.000000 0.000000 -6.173690 -1.242691 6.724915 9.577911 4.503767 -14.380437 -9.563267 -0.739129 -6.444520 0.000000 0.000000 0.000000 
-0.015736 83.047417 -0.039550 -2.241162 3.982609 5.408026 1.796858 -8.594831 -0.799109 2.667799 -0.548883 -0.310677 2.583127 8.601985 2.041236 0.326973 11.937692 2.552521 2.589664 10.095409 0.781085 -70.299896 27.049646 -23.004639 -12.433868 1.581485 -6.072095 3.530944 1.072917 7.505118 -8.298912 10.110676 -10.831298 58.417519 51.189491 34.921513 6.141447 -10.897742 6.670236 -10.136797 -11.068788 -2.861310 4.231898 4.392860 7.882654 1.981541 -8.084947 1.389303 1.265204 4.330142 -0.082078 0.000000 0.000000 0.000000 -6.181035 -1.254883 6.720291 9.578253 4.507034 -14.362257 -9.555498 -0.736544 -6.457969 0.000000 0.000000 0.000000 
-0.018271 83.048134 -0.044034 -2.241676 3.974305 5.406504 1.806434 -8.582325 -0.792908 2.689817 -0.577469 -0.307869 2.511379 8.649491 2.051363 0.379258 11.924989 2.537527 2.514847 10.027048 0.696389 -70.233444 27.282772 -22.929609 -12.302762 1.440623 -6.049634 3.475699 0.937128 7.457225 -8.312675 10.107426 -10.818762 58.203110 51.453491 35.148277 6.053299 -11.061925 6.538798 -10.130681 -11.222873 -2.834083 4.261204 4.428534 7.902595 2.028028 -8.057863 1.398616 0.116101 3.917218 0.083847 0.000000 0.000000 0.000000 -6.178926 -1.253023 6.725437 9.579105 4.516374 -14.368532 -9.669693 -0.724238 -6.332846 0.000000 0.000000 0.000000 
-0.019525 83.047745 -0.051596 -2.237774 3.974069 5.402802 1.814167 -8.578813 -0.790739 2.645435 -0.553012 -0.308264 2.580899 8.603972 2.034017 0.344839 11.926948 2.540688 2.599810 10.070220 0.774392 -70.303673 27.020958 -22.964577 -12.427083 1.594101 -6.080643 3.524074 1.085243 7.533204 -8.294538 10.104947 -10.826872 58.423088 51.194813 34.923920 6.150962 -10.898984 6.661176 -10.226293 -11.066796 -2.877543 4.258991 4.423971 7.904026 2.033581 -8.054564 1.382132 0.135857 3.922355 0.069653 0.000000 0.000000 0.000000 -6.182368 -1.261577 6.727430 9.580396 4.516261 -14.372349 -9.513994 -0.730345 -6.477628 0.000000 0.000000 0.000000 
-0.022120 83.051888 -0.057060 -2.248595 3.977269 5.411165 1.796762 -8.605684 -0.788383 2.724774 -0.568903 -0.306468 2.508469 8.681757 2.055781 0.365832 11.900990 2.545607 2.490428 10.029354 0.638647 -70.242722 27.207188 -22.890108 -12.298954 1.447028 -6.040028 3.520682 0.947671 7.460265 -8.242903 10.091809 -10.823770 58.118771 51.447998 35.146427 6.098752 -11.097816 6.548017 -10.337490 -11.252364 -2.893617 4.237137 4.388989 7.900008 1.971138 -8.101280 1.354611 1.286590 4.368533 0.023870 0.000000 0.000000 0.000000 -6.165451 -1.275632 6.700284 9.625388 4.644529 -14.680469 -10.118764 -0.875791 -5.552095 0.000000 0.000000 0.000000 
-0.022999 83.047829 -0.062209 -2.235408 3.970638 5.401114 1.830613 -8.574535 -0.785284 2.625756 -0.554608 -0.306648 2.585312 8.605309 2.036481 0.347241 11.925217 2.543635 2.616948 10.069835 0.774978 -70.297455 27.000790 -22.966911 -12.433222 1.595044 -6.070686 3.546226 1.088267 7.530103 -8.291613 10.103931 -10.820303 58.433990 51.190006 34.913475 6.160879 -10.896416 6.668495 -10.305023 -11.061912 -2.896299 4.226927 4.397217 7.913451 1.979726 -8.105620 1.367609 1.268351 4.356650 -0.082308 0.000000 0.000000 0.000000 -6.186143 -1.265831 6.735560 9.587110 4.520271 -14.375218 -9.549205 -0.730401 -6.449457 0.000000 0.000000 0.000000 
